<svg width="1440" height="1024" viewBox="0 0 1440 1024" fill="none" xmlns="http://www.w3.org/2000/svg">
<g clip-path="url(#clip0_1_165)">
<rect width="1440" height="1024" transform="matrix(-1 0 0 -1 1440 1024)" fill="#110C17"/>
<g filter="url(#filter0_f_1_165)">
<path d="M195.41 811.816C53.6981 811.816 -61.1821 926.696 -61.1821 1068.41C-61.1821 1210.12 53.6981 1325 195.41 1325C337.122 1325 452.002 1210.12 452.002 1068.41C452.002 926.696 337.122 811.816 195.41 811.816Z" fill="#193B92"/>
</g>
<g filter="url(#filter1_f_1_165)">
<path d="M1125.41 -184.184C983.696 -184.184 868.816 -69.3038 868.816 72.408C868.816 214.12 983.696 329 1125.41 329C1267.12 329 1382 214.12 1382 72.408C1382 -69.3038 1267.12 -184.184 1125.41 -184.184Z" fill="#193B92"/>
</g>
<g filter="url(#filter2_f_1_165)">
<path d="M84.5 -319C-23.4717 -319 -111 -231.472 -111 -123.5C-111 -15.5283 -23.4717 72 84.5 72C192.472 72 280 -15.5283 280 -123.5C280 -231.472 192.472 -319 84.5 -319Z" fill="#921985"/>
</g>
<g filter="url(#filter3_f_1_165)">
<path d="M1346.41 911.816C1204.7 911.816 1089.82 1026.7 1089.82 1168.41C1089.82 1310.12 1204.7 1425 1346.41 1425C1488.12 1425 1603 1310.12 1603 1168.41C1603 1026.7 1488.12 911.816 1346.41 911.816Z" fill="#921985"/>
</g>
</g>
<defs>
<filter id="filter0_f_1_165" x="-461.182" y="411.816" width="1313.18" height="1313.18" filterUnits="userSpaceOnUse" color-interpolation-filters="sRGB">
<feFlood flood-opacity="0" result="BackgroundImageFix"/>
<feBlend mode="normal" in="SourceGraphic" in2="BackgroundImageFix" result="shape"/>
<feGaussianBlur stdDeviation="200" result="effect1_foregroundBlur_1_165"/>
</filter>
<filter id="filter1_f_1_165" x="468.816" y="-584.184" width="1313.18" height="1313.18" filterUnits="userSpaceOnUse" color-interpolation-filters="sRGB">
<feFlood flood-opacity="0" result="BackgroundImageFix"/>
<feBlend mode="normal" in="SourceGraphic" in2="BackgroundImageFix" result="shape"/>
<feGaussianBlur stdDeviation="200" result="effect1_foregroundBlur_1_165"/>
</filter>
<filter id="filter2_f_1_165" x="-511" y="-719" width="1191" height="1191" filterUnits="userSpaceOnUse" color-interpolation-filters="sRGB">
<feFlood flood-opacity="0" result="BackgroundImageFix"/>
<feBlend mode="normal" in="SourceGraphic" in2="BackgroundImageFix" result="shape"/>
<feGaussianBlur stdDeviation="200" result="effect1_foregroundBlur_1_165"/>
</filter>
<filter id="filter3_f_1_165" x="689.816" y="511.816" width="1313.18" height="1313.18" filterUnits="userSpaceOnUse" color-interpolation-filters="sRGB">
<feFlood flood-opacity="0" result="BackgroundImageFix"/>
<feBlend mode="normal" in="SourceGraphic" in2="BackgroundImageFix" result="shape"/>
<feGaussianBlur stdDeviation="200" result="effect1_foregroundBlur_1_165"/>
</filter>
<clipPath id="clip0_1_165">
<rect width="1440" height="1024" fill="white" transform="matrix(-1 0 0 -1 1440 1024)"/>
</clipPath>
</defs>
</svg>
